<svg width="601" height="81" viewBox="0 0 601 81" fill="none" xmlns="http://www.w3.org/2000/svg">
<path d="M82.2074 54.8064L48.5892 20.6609H44.6887L11.0665 54.8123L10.9964 2.78577H0V78.5853H4.23308L46.6399 33.1271L88.9166 78.2998L89.183 78.5853H93.2779V2.78577H82.1393L82.2074 54.8064Z" fill="#312849"/>
<path d="M241.464 58.7043L180.991 2.78577H175.422V78.5853H187.109V22.5589L247.719 78.5853H253.152V2.78577H241.464V58.7043Z" fill="#312849"/>
<path d="M473.707 58.7043L413.232 2.78577H407.665V78.5853H419.351V22.5589L479.96 78.5853H485.391V2.78577H473.707V58.7043Z" fill="#312849"/>
<path d="M556.99 2.78577H551.167L507.297 78.5853H519.428L533.185 55.2854H574.972L588.731 78.5853H601L556.99 2.78577ZM570.052 46.3798H538.107L554.08 17.9864L570.052 46.3798Z" fill="#312849"/>
<path d="M139.916 2.78577H128.78V78.5853H139.916V2.78577Z" fill="#312849"/>
<path d="M329.733 0.754272C301.929 0.754272 279.309 18.8409 279.309 41.069C279.309 62.7662 302.237 80.4178 330.418 80.4178C359.078 80.4178 381.528 62.9459 381.528 40.6399C381.528 18.2741 358.778 0.754272 329.733 0.754272ZM369.842 40.6399C369.842 58.1318 352.465 71.8355 330.282 71.8355C308.33 71.8355 291.135 58.3214 291.135 41.069C291.135 23.7508 308.696 9.65988 330.282 9.65988C352.097 9.65988 369.842 23.5572 369.842 40.6399Z" fill="#312849"/>
</svg>
